<svg width="390" height="350" viewBox="0 0 390 350" fill="none" xmlns="http://www.w3.org/2000/svg">
<path d="M86.25 270H80.625V301.5C80.625 304 78.625 306 76.25 306H72.75C70.25 306 68.25 304 68.25 301.5V226.25C68.25 223.75 70.25 221.75 72.75 221.75H86.25C101.5 221.75 108.25 229.75 108.25 245.875C108.25 262 101.5 270 86.25 270ZM86.25 234.125H80.625V257.625H86.25C93 257.625 95.75 254 95.75 245.875C95.75 237.5 93 234.125 86.25 234.125ZM136.183 302.5L131.933 283H119.183L114.808 302.5C114.308 304.375 112.308 306 110.433 306H106.808C103.808 306 101.808 303.5 102.433 300.625L108.433 274.125L119.808 225.25C120.308 223.375 122.308 221.75 124.183 221.75H126.933C128.808 221.75 130.933 223.375 131.308 225.25L148.558 300.5C149.183 303.375 147.183 306 144.183 306H140.558C138.683 306 136.683 304.375 136.183 302.5ZM125.558 250.625L122.058 270.625H129.058C127.683 264.625 127.933 261.25 125.558 250.625ZM192.23 298.125V301.5C192.23 304 190.23 306 187.73 306H161.105C158.605 306 156.605 304 156.605 301.5V226.25C156.605 223.75 158.605 221.75 161.105 221.75H164.73C167.105 221.75 169.105 223.75 169.105 226.25V293.625H187.73C190.23 293.625 192.23 295.625 192.23 298.125Z" fill="#FCFAFA"/>
<path d="M338.331 302.5L334.081 283H321.331L316.956 302.5C316.456 304.375 314.456 306 312.581 306H308.956C305.956 306 303.956 303.5 304.581 300.625L310.581 274.125L321.956 225.25C322.456 223.375 324.456 221.75 326.331 221.75H329.081C330.956 221.75 333.081 223.375 333.456 225.25L350.706 300.5C351.331 303.375 349.331 306 346.331 306H342.706C340.831 306 338.831 304.375 338.331 302.5ZM327.706 250.625L324.206 270.625H331.206C329.831 264.625 330.081 261.25 327.706 250.625ZM371.629 226.25V301.5C371.629 304 369.504 306 367.129 306H363.629C361.129 306 359.129 304 359.129 301.5V226.25C359.129 223.75 361.129 221.75 363.629 221.75H367.129C369.504 221.75 371.629 223.75 371.629 226.25Z" fill="#D62828"/>
<rect x="207.872" y="224.675" width="86.1277" height="81.5806" rx="3" fill="black"/>
<rect x="206.5" y="223.5" width="83.1277" height="78.5806" rx="1.5" fill="#C3A995" stroke="#2F2504" stroke-width="3"/>
<path d="M268.16 260.517C268.16 264.957 267.128 268.904 265.537 271.688C263.922 274.515 261.919 275.868 260.03 275.868C258.142 275.868 256.139 274.515 254.524 271.688C252.933 268.904 251.901 264.957 251.901 260.517C251.901 256.076 252.933 252.13 254.524 249.345C256.139 246.519 258.142 245.166 260.03 245.166C261.919 245.166 263.922 246.519 265.537 249.345C267.128 252.13 268.16 256.076 268.16 260.517Z" fill="white" stroke="#2F2504" stroke-width="3"/>
<path d="M257.088 248.48C252.274 248.48 251.204 256.371 250.936 260.383C251.257 269.691 254.948 271.974 257.088 272.286C263.103 271.674 263.767 262.838 263.315 257.533C263.277 257.082 262.929 256.725 262.482 256.657L261.058 256.441C260.201 256.311 259.904 255.226 260.577 254.678L261.971 253.542C262.258 253.308 262.398 252.931 262.295 252.575C261.353 249.317 258.479 248.48 257.088 248.48Z" fill="#2F2504"/>
<path d="M241.679 260.517C241.679 264.957 240.648 268.904 239.057 271.688C237.441 274.515 235.439 275.868 233.55 275.868C231.662 275.868 229.659 274.515 228.044 271.688C226.453 268.904 225.421 264.957 225.421 260.517C225.421 256.076 226.453 252.13 228.044 249.345C229.659 246.519 231.662 245.166 233.55 245.166C235.439 245.166 237.441 246.519 239.057 249.345C240.648 252.13 241.679 256.076 241.679 260.517Z" fill="white" stroke="#2F2504" stroke-width="3"/>
<path d="M230.608 248.48C225.793 248.48 224.723 256.371 224.456 260.383C224.777 269.691 228.468 271.974 230.608 272.286C236.623 271.674 237.287 262.838 236.835 257.533C236.796 257.082 236.449 256.725 236.001 256.657L234.578 256.441C233.72 256.311 233.424 255.226 234.096 254.678L235.49 253.542C235.778 253.308 235.918 252.931 235.815 252.575C234.873 249.317 231.999 248.48 230.608 248.48Z" fill="#2F2504"/>
<path d="M237.103 270.422C238.066 263.14 245.439 267.388 249.005 270.422V279.696C244.637 279.639 236.14 277.704 237.103 270.422Z" fill="#C3A995"/>
<path d="M249.005 270.422C245.439 267.388 238.066 263.14 237.103 270.422C236.14 277.704 244.637 279.639 249.005 279.696" stroke="#2F2504" stroke-width="3" stroke-linecap="round"/>
<ellipse cx="268.857" cy="278.705" rx="1.33739" ry="1.33739" fill="#2F2504"/>
<ellipse cx="273.939" cy="274.426" rx="1.33739" ry="1.33739" fill="#2F2504"/>
<ellipse cx="275.277" cy="281.113" rx="1.33739" ry="1.33739" fill="#2F2504"/>
<path d="M288 225H235C272.565 226.845 275.734 227.549 280.263 232.071C286.421 238.219 287.076 259.601 288 272V225Z" fill="#C3A995"/>
<path d="M288 225H235C272.565 226.845 275.734 227.549 280.263 232.071C286.421 238.219 287.076 259.601 288 272V225Z" fill="black" fill-opacity="0.2"/>
<path d="M195.584 190.4L188.784 159.2H168.384L161.384 190.4C160.584 193.4 157.384 196 154.384 196H148.584C143.784 196 140.584 192 141.584 187.4L151.184 145L169.384 66.8C170.184 63.8 173.384 61.2 176.384 61.2H180.784C183.784 61.2 187.184 63.8 187.784 66.8L215.384 187.2C216.384 191.8 213.184 196 208.384 196H202.584C199.584 196 196.384 193.4 195.584 190.4ZM178.584 107.4L172.984 139.4H184.184C181.984 129.8 182.384 124.4 178.584 107.4ZM218.519 156.8V100.2C218.519 85 222.919 75 229.319 69C235.919 63 243.919 61.2 251.519 61.2C258.919 61.2 266.919 63 273.519 69C279.919 75 284.119 85 284.119 100.2V103C284.119 107 280.919 110.2 277.119 110.2H271.319C267.319 110.2 264.119 107 264.119 103V100.2C264.119 86.8 259.719 81 251.519 81C243.119 81 238.719 86.8 238.719 100.2V156.8C238.719 170.2 242.919 176.2 251.519 176.2C255.319 176.2 258.919 174.6 260.719 172.6C263.119 169.4 264.119 164 264.119 156.8V154C264.119 150 267.319 146.8 271.319 146.8H277.119C280.919 146.8 284.119 150 284.119 154V156.8C284.119 172.6 279.919 181.8 273.719 188C267.119 194.4 258.719 196 251.519 196C243.919 196 235.719 194.4 229.119 188C222.919 181.8 218.519 172.6 218.519 156.8ZM317.43 111.6L346.43 64.6C347.43 63 350.43 61.2 352.43 61.2H359.23C365.43 61.2 368.63 67 365.43 72.2L332.03 126L365.63 185.2C368.43 190.4 365.23 196 359.23 196H352.83C350.83 196 347.63 194.2 346.63 192.4L319.83 145.6L317.43 149.2V188.8C317.43 192.8 314.23 196 310.23 196H304.63C300.63 196 297.43 192.8 297.43 188.8V68.4C297.43 64.4 300.63 61.2 304.63 61.2H310.23C314.23 61.2 317.43 64.4 317.43 68.4V111.6Z" fill="#FCFAFA"/>
<path d="M58.4 194.8H40.4V295.6C40.4 303.6 34 310 26.4 310H15.2C7.2 310 0.8 303.6 0.8 295.6V54.8C0.8 46.8 7.2 40.4 15.2 40.4H58.4C107.2 40.4 128.8 66 128.8 117.6C128.8 169.2 107.2 194.8 58.4 194.8ZM58.4 80H40.4V155.2H58.4C80 155.2 88.8 143.6 88.8 117.6C88.8 90.8 80 80 58.4 80Z" fill="#FCFAFA"/>
</svg>
